<?xml version="1.0" standalone="no"?>
<svg xmlns="http://www.w3.org/2000/svg" viewBox="0 0 123.7 29" width="123.7" height="29"><path fill="#ffffff" fill-rule="nonzero" d="M0.07 14.98L1.03 14.90Q1.25 12.46 1.25 8.41Q1.25 4.37 1.01 2.47L1.01 2.47L0.07 2.40Q0 2.11 0 1.66Q0 1.20 0.02 1.06L0.02 1.06Q1.56 1.03 2.76 0.84Q3.96 0.65 5.30 0.65L5.30 0.65Q7.73 0.65 8.99 1.76Q10.25 2.88 10.25 5.14Q10.25 7.39 8.71 8.54L8.71 8.54Q11.28 9.58 11.28 12.22L11.28 12.22Q11.28 14.45 9.89 15.59Q8.50 16.73 5.78 16.73L5.78 16.73Q4.27 16.73 2.98 16.54L2.98 16.54Q0.70 16.37 0.02 16.32L0.02 16.32Q0 16.18 0 15.74Q0 15.31 0.07 14.98L0.07 14.98ZM4.44 7.44L4.44 7.44Q4.97 7.80 5.99 7.80Q7.01 7.80 7.58 7.12Q8.16 6.43 8.16 5.05Q8.16 3.67 7.39 2.84Q6.62 2.02 5.21 2.02L5.21 2.02Q4.32 2.02 3.24 2.45L3.24 2.45Q3.05 4.44 3.05 8.26Q3.05 12.07 3.24 14.52L3.24 14.52Q4.66 15.07 5.81 15.07L5.81 15.07Q9.19 15.07 9.19 12.22L9.19 12.22Q9.19 9.82 6.96 9.29L6.96 9.29Q6.24 9.41 5.56 9.41Q4.87 9.41 3.94 9.05L3.94 9.05Q3.94 7.94 4.44 7.44ZM14.47 10.80L14.47 10.80L14.47 7.51Q14.47 3.19 14.35 1.63L14.35 1.63L13.39 1.56Q13.32 1.25 13.32 0.83Q13.32 0.41 13.34 0.22L13.34 0.22Q15.53 0.10 16.46 0L16.46 0L16.56 0.12Q16.22 2.98 16.22 6.26L16.22 6.26L16.22 10.22Q16.22 13.18 16.44 14.98L16.44 14.98L17.33 15.05Q17.38 15.43 17.38 15.71Q17.38 15.98 17.30 16.39L17.30 16.39Q16.46 16.37 15.36 16.37Q14.26 16.37 13.44 16.39L13.44 16.39Q13.37 16.03 13.37 15.76Q13.37 15.48 13.42 15.05L13.42 15.05L14.26 14.98Q14.47 12.72 14.47 10.80ZM19.37 10.68Q19.37 4.90 23.88 4.90Q28.39 4.90 28.39 10.68L28.39 10.68Q28.39 13.34 27.55 14.90L27.55 14.90Q26.59 16.73 23.88 16.73Q21.17 16.73 20.21 14.90L20.21 14.90Q19.37 13.34 19.37 10.68L19.37 10.68ZM21.34 10.62Q21.34 15.00 23.88 15.00Q26.42 15.00 26.42 10.62Q26.42 6.24 23.88 6.24Q21.34 6.24 21.34 10.62ZM31.70 10.80L31.70 10.80L31.70 7.51Q31.70 3.19 31.58 1.63L31.58 1.63L30.62 1.56Q30.55 1.25 30.55 0.83Q30.55 0.41 30.58 0.22L30.58 0.22Q32.76 0.10 33.70 0L33.70 0L33.79 0.12Q33.46 2.98 33.46 6.26L33.46 6.26L33.46 10.22Q33.46 13.18 33.67 14.98L33.67 14.98L34.56 15.05Q34.61 15.43 34.61 15.71Q34.61 15.98 34.54 16.39L34.54 16.39Q33.70 16.37 32.59 16.37Q31.49 16.37 30.67 16.39L30.67 16.39Q30.60 16.03 30.60 15.76Q30.60 15.48 30.65 15.05L30.65 15.05L31.49 14.98Q31.70 12.72 31.70 10.80ZM37.10 5.16L37.10 5.16Q37.70 5.18 38.56 5.18Q39.41 5.18 40.08 5.16L40.08 5.16Q40.15 5.47 40.15 5.84Q40.15 6.22 40.10 6.50L40.10 6.50L39.07 6.58Q38.64 7.10 37.54 8.35Q36.43 9.60 35.90 10.22L35.90 10.22Q38.23 13.54 39.50 14.98L39.50 14.98L40.54 15.05Q40.58 15.34 40.58 15.71Q40.58 16.08 40.51 16.39L40.51 16.39Q39.65 16.37 38.69 16.37Q37.73 16.37 37.10 16.39L37.10 16.39Q37.01 15.38 36.84 14.98L36.84 14.98Q36 13.32 33.84 10.92L33.84 10.92L33.91 10.68Q35.81 8.38 36.82 6.58L36.82 6.58Q37.01 6.10 37.10 5.16ZM42.70 12.48L42.70 12.48Q42.70 12.48 42.74 7.13L42.74 7.13Q42.74 6.77 42.72 6.58L42.72 6.58Q41.71 6.58 41.28 6.60L41.28 6.60Q41.14 6.22 41.14 5.84Q41.14 5.47 41.18 5.28L41.18 5.28L42.65 5.28L42.53 3.50Q43.13 3.31 43.79 3.31Q44.45 3.31 44.88 3.41L44.88 3.41L44.66 5.26Q45.98 5.23 47.33 5.11L47.33 5.11Q47.47 5.42 47.47 5.80Q47.47 6.17 47.38 6.70L47.38 6.70Q46.49 6.65 44.57 6.60L44.57 6.60Q44.52 7.08 44.52 8.02L44.52 8.02L44.52 12.89Q44.52 13.51 44.58 13.91Q44.64 14.30 44.89 14.63Q45.14 14.95 45.62 14.95L45.62 14.95Q46.68 14.95 47.64 14.21L47.64 14.21Q48.14 14.93 48.14 16.15L48.14 16.15Q46.82 16.73 45.85 16.73Q44.88 16.73 44.30 16.48Q43.73 16.22 43.42 15.88Q43.10 15.53 42.94 14.90L42.94 14.90Q42.70 14.02 42.70 12.48ZM53.50 11.04L53.50 11.04Q52.32 11.04 51.31 10.92L51.31 10.92Q51.36 15.00 54.02 15.00L54.02 15.00Q55.37 15.00 57 13.51L57 13.51Q57.70 14.23 57.89 15.41L57.89 15.41Q55.92 16.73 53.71 16.73Q51.50 16.73 50.42 15.20Q49.34 13.68 49.34 10.73Q49.34 7.78 50.56 6.34Q51.77 4.90 54 4.90L54 4.90Q55.66 4.90 56.74 5.90Q57.82 6.91 57.83 8.38Q57.84 9.84 57.58 10.46L57.58 10.46Q55.78 11.04 53.50 11.04ZM53.83 6.24L53.83 6.24Q51.60 6.24 51.34 9.53L51.34 9.53Q52.42 9.65 53.71 9.65Q55.01 9.65 55.73 9.41L55.73 9.41Q55.82 8.81 55.82 8.52L55.82 8.52Q55.82 7.46 55.28 6.85Q54.74 6.24 53.83 6.24ZM67.18 9.00Q66.50 9.00 66.13 8.58Q65.76 8.16 65.76 7.55Q65.76 6.94 65.93 6.62L65.93 6.62Q65.40 6.22 64.68 6.22L64.68 6.22Q62.14 6.22 62.14 10.73L62.14 10.73Q62.14 12.79 62.78 13.90Q63.43 15.00 64.62 15.00Q65.81 15.00 67.56 13.51L67.56 13.51Q68.26 14.23 68.45 15.41L68.45 15.41Q66.43 16.73 64.34 16.73Q62.26 16.73 61.21 15.22Q60.17 13.70 60.17 10.75Q60.17 7.80 61.32 6.35Q62.47 4.90 64.58 4.90L64.58 4.90Q66.24 4.90 67.27 5.68Q68.30 6.46 68.30 7.73Q68.30 9.00 67.18 9.00L67.18 9.00ZM71.21 12.48L71.21 12.48Q71.21 12.48 71.26 7.13L71.26 7.13Q71.26 6.77 71.23 6.58L71.23 6.58Q70.22 6.58 69.79 6.60L69.79 6.60Q69.65 6.22 69.65 5.84Q69.65 5.47 69.70 5.28L69.70 5.28L71.16 5.28L71.04 3.50Q71.64 3.31 72.30 3.31Q72.96 3.31 73.39 3.41L73.39 3.41L73.18 5.26Q74.50 5.23 75.84 5.11L75.84 5.11Q75.98 5.42 75.98 5.80Q75.98 6.17 75.89 6.70L75.89 6.70Q75 6.65 73.08 6.60L73.08 6.60Q73.03 7.08 73.03 8.02L73.03 8.02L73.03 12.89Q73.03 13.51 73.09 13.91Q73.15 14.30 73.40 14.63Q73.66 14.95 74.14 14.95L74.14 14.95Q75.19 14.95 76.15 14.21L76.15 14.21Q76.66 14.93 76.66 16.15L76.66 16.15Q75.34 16.73 74.36 16.73Q73.39 16.73 72.82 16.48Q72.24 16.22 71.93 15.88Q71.62 15.53 71.45 14.90L71.45 14.90Q71.21 14.02 71.21 12.48Z" transform="translate(0, 6.136)"></path><line x1="85.656" y1="2%" x2="85.656" y2="98%" stroke="#ffffff" stroke-linecap="round"></line><g fill="#ffffff" color="#ffffff" transform="translate(94.656 0) scale(0.453125)"><svg width="64.0" height="64.0" x="0.0" y="0.0" viewBox="0 0 64 64"><title></title><g data-name="Layer 2"><path d="M41,8.3H23.72a4.36,4.36,0,0,0-4.36,4.36V27.94a4.36,4.36,0,0,0,4.36,4.36H41a4.36,4.36,0,0,0,4.36-4.36V12.66A4.36,4.36,0,0,0,41,8.3Zm-8.64,16a4,4,0,1,1,4-4A4,4,0,0,1,32.36,24.3Z"></path><path d="M8.72,60.3H26a4.36,4.36,0,0,0,4.36-4.36V40.66A4.36,4.36,0,0,0,26,36.3H8.72a4.36,4.36,0,0,0-4.36,4.36V55.94A4.36,4.36,0,0,0,8.72,60.3Zm4.16-10,3.41-5.37a1.27,1.27,0,0,1,2.15,0l3.41,5.37a1.27,1.27,0,0,1-1.07,2H14A1.27,1.27,0,0,1,12.88,50.3Z"></path><path d="M56,36.3H38.72a4.36,4.36,0,0,0-4.36,4.36V55.94a4.36,4.36,0,0,0,4.36,4.36H56a4.36,4.36,0,0,0,4.36-4.36V40.66A4.36,4.36,0,0,0,56,36.3ZM51.36,50.62a1.68,1.68,0,0,1-1.68,1.68H45a1.68,1.68,0,0,1-1.68-1.68V46A1.68,1.68,0,0,1,45,44.3h4.65A1.68,1.68,0,0,1,51.36,46Z"></path></g></svg></g></svg>